<svg xmlns="http://www.w3.org/2000/svg" viewBox="0 0 633.2 86.022"><path d="M.255 32.831a.813.813 0 0 1 .763-.764.813.813 0 0 1 .764.764v8.908H18.07v-8.908a.764.764 0 1 1 1.527 0v19.342a.764.764 0 0 1-1.527 0v-8.906H1.527v8.908a.813.813 0 0 1-.764.764.813.813 0 0 1-.763-.766V32.831zm43.519-.509a10.18 10.18 0 1 1-10.18 10.18 10.049 10.049 0 0 1 10.18-10.18zm0 19.088a8.852 8.852 0 0 0 8.908-8.908 9.017 9.017 0 0 0-8.908-8.908 8.908 8.908 0 1 0 0 17.815zm46.828-17.052l-10.18 10.18c-.255.255-.255.255-.509.255a.889.889 0 0 1-.509-.255l-10.18-10.18v17.815a.764.764 0 0 1-1.527 0V32.831a.813.813 0 0 1 .764-.764c.255 0 .255 0 .509.255l10.689 10.689 10.689-10.689c0-.255.254-.255.509-.255a.813.813 0 0 1 .764.764v19.342a.764.764 0 1 1-1.527 0V34.358zm18.07-1.527a.813.813 0 0 1 .764-.764h16.034a.764.764 0 0 1 0 1.527H110.2v8.4h12.218a.813.813 0 0 1 .764.764c0 .509-.509.509-1.018.509h-12.219v8.4h15.273a.764.764 0 1 1 0 1.527h-16.036a.813.813 0 0 1-.764-.764v-19.6zm46.574 1.782l-7.126 17.815a.547.547 0 0 1-.509.509.889.889 0 0 1-.509-.255l-7.635-19.342v-.255a.813.813 0 0 1 .764-.764.547.547 0 0 1 .509.509l7.127 17.816 7.126-17.815a.509.509 0 0 1 1.018 0l7.126 17.815 7.126-17.815a.547.547 0 0 1 .504-.509.813.813 0 0 1 .764.764v.255l-7.632 19.341a.509.509 0 1 1-1.018 0zm36.903-2.291a10.18 10.18 0 1 1-10.18 10.18 10.21 10.21 0 0 1 10.18-10.18zm0 19.088a8.852 8.852 0 0 0 8.908-8.908 9.017 9.017 0 0 0-8.908-8.908 8.908 8.908 0 1 0 0 17.815zm33.594-19.088a10.18 10.18 0 1 1-10.18 10.18 10.21 10.21 0 0 1 10.18-10.18zm0 19.088a8.852 8.852 0 0 0 8.908-8.908 9.017 9.017 0 0 0-8.908-8.908 8.852 8.852 0 0 0-8.908 8.908 9.017 9.017 0 0 0 8.908 8.908zm24.687-18.579a.813.813 0 0 1 .764-.764h7.89a10.18 10.18 0 0 1 0 20.36h-7.89a.813.813 0 0 1-.764-.76zm8.653.764h-7.381v18.072h7.381a9.017 9.017 0 0 0 8.908-8.908 9.242 9.242 0 0 0-8.908-9.165zm127.759-.763a.764.764 0 0 1 1.527 0v19.342a.764.764 0 0 1-1.527 0zm17.815-.001a.813.813 0 0 1 .764-.764c.255 0 .255 0 .509.255L424 50.392V32.577a.813.813 0 0 1 .764-.764.675.675 0 0 1 .764.764v19.342a.813.813 0 0 1-.764.764c-.255 0-.509 0-.509-.255l-18.07-18.07v17.815a.764.764 0 0 1-1.527 0zm42.248.764h-8.908c-.255 0-.509-.255-.509-.764 0-.255.255-.764.509-.764h19.342a.764.764 0 1 1 0 1.527h-9.162v18.58a.764.764 0 0 1-1.527 0V33.595zm23.668-.763a.813.813 0 0 1 .764-.764h16.036c.255 0 .509.255.509.764 0 .255-.255.764-.509.764h-15.27v8.4h12.216a.764.764 0 1 1 0 1.527H472.1v8.4h15.273c.255 0 .509.255.509.764 0 .255-.255.764-.509.764h-16.036a.813.813 0 0 1-.764-.764zm32.322 0a.813.813 0 0 1 .764-.764h9.671a6.25 6.25 0 0 1 6.108 6.363 6.42 6.42 0 0 1-6.108 6.363l6.872 6.872c.255.255.255.255.255.509a.813.813 0 0 1-.764.764c-.255 0-.509 0-.509-.255l-7.635-7.635h-7.381v7.379c0 .254-.255.764-.509.764a.813.813 0 0 1-.764-.764zm1.273.764v9.926h9.162a4.893 4.893 0 0 0 4.836-5.09 5.1 5.1 0 0 0-5.09-5.09h-8.908zm31.303-.764a.764.764 0 1 1 1.527 0v19.342a.764.764 0 0 1-1.527 0zm25.45-.51a10.18 10.18 0 1 1-10.18 10.18 10.21 10.21 0 0 1 10.18-10.18zm0 19.342a8.908 8.908 0 1 0-8.908-8.908 9.017 9.017 0 0 0 8.908 8.908zm24.178-18.832a.813.813 0 0 1 .764-.764h9.671a6.25 6.25 0 0 1 6.108 6.363 6.42 6.42 0 0 1-6.108 6.363h-.255l6.872 6.872c.255.255.255.255.255.509a.813.813 0 0 1-.764.764c-.255 0-.255 0-.509-.255l-7.635-7.635h-7.126v7.379a.764.764 0 1 1-1.527 0v-19.6zm1.272.764v9.926h9.162a4.893 4.893 0 0 0 4.835-5.09 5.1 5.1 0 0 0-5.09-5.09h-8.908zm38.43 18.068c4.072 0 7.126-1.018 7.126-4.072s-3.309-4.072-7.126-4.072c-4.836 0-8.4-1.782-8.4-5.345 0-3.309 3.563-5.345 8.4-5.345a19.431 19.431 0 0 1 6.872 1.273c.255 0 .509.509.509.764a.488.488 0 0 1-.763.255 16.1 16.1 0 0 0-6.617-1.273c-4.072 0-7.126 1.018-7.126 4.072s3.309 4.072 7.126 4.072c4.836 0 8.4 1.782 8.4 5.345 0 3.309-3.563 5.345-8.4 5.345h-1.018a22.08 22.08 0 0 1-7.126-1.273c-.255-.255-.509-.509-.509-.764 0-.509.509-.509.764-.509a18.023 18.023 0 0 0 6.617 1.273h1.273zM329.834 2.036a2.036 2.036 0 0 0-4.072 0v35.885h4.072zm-4.072 81.95a2.036 2.036 0 0 0 4.072 0V47.592h-4.072zm18.579-72.024A2.007 2.007 0 0 0 342.304 14v26.72h-29.013V14a2.036 2.036 0 0 0-4.072 0v57.515a2.036 2.036 0 0 0 4.072 0V44.792h29.013v26.723a2.036 2.036 0 0 0 4.072 0V14a1.873 1.873 0 0 0-2.036-2.038z" fill="#fff"/></svg>