<svg xmlns="http://www.w3.org/2000/svg" viewBox="0 0 633.2 86.022"><defs><style>.a{fill:#fff;}</style></defs><g transform="translate(0.1)"><g transform="translate(-0.1 32.067)"><path class="a" d="M.155,13.364A.813.813,0,0,1,.918,12.6a.813.813,0,0,1,.764.764v8.908H17.97V13.364a.764.764,0,1,1,1.527,0V32.706a.764.764,0,0,1-1.527,0V23.8H1.427v8.908a.813.813,0,0,1-.764.764A.813.813,0,0,1-.1,32.706V13.364Z" transform="translate(0.1 -12.6)"/><path class="a" d="M23.28,12.7A10.18,10.18,0,1,1,13.1,22.88,10.049,10.049,0,0,1,23.28,12.7Zm0,19.088a8.852,8.852,0,0,0,8.908-8.908,9.017,9.017,0,0,0-8.908-8.908,8.908,8.908,0,1,0,0,17.815Z" transform="translate(20.494 -12.445)"/><path class="a" d="M49.405,14.891l-10.18,10.18c-.255.255-.255.255-.509.255a.889.889,0,0,1-.509-.255l-10.18-10.18V32.706a.764.764,0,0,1-1.527,0V13.364a.813.813,0,0,1,.764-.764c.255,0,.255,0,.509.255L38.462,23.544,49.151,12.855c0-.255.254-.255.509-.255a.813.813,0,0,1,.764.764V32.706a.764.764,0,1,1-1.527,0V14.891Z" transform="translate(41.197 -12.6)"/><path class="a" d="M42.754,13.364a.813.813,0,0,1,.764-.764H59.552a.764.764,0,0,1,0,1.527H44.282v8.4H56.5a.813.813,0,0,1,.764.764c0,.509-.509.509-1.018.509H44.027v8.4H59.3a.764.764,0,1,1,0,1.527H43.264a.813.813,0,0,1-.764-.764v-19.6Z" transform="translate(65.918 -12.6)"/><path class="a" d="M70.479,14.991,63.353,32.806a.547.547,0,0,1-.509.509.889.889,0,0,1-.509-.255L54.7,13.718v-.255a.813.813,0,0,1,.764-.764.547.547,0,0,1,.509.509L63.1,31.024l7.126-17.815a.509.509,0,0,1,1.018,0l7.126,17.815,7.126-17.815A.547.547,0,0,1,86,12.7a.813.813,0,0,1,.764.764v.255L79.132,33.06a.509.509,0,1,1-1.018,0Z" transform="translate(84.767 -12.445)"/><path class="a" d="M81.58,12.7A10.18,10.18,0,1,1,71.4,22.88,10.21,10.21,0,0,1,81.58,12.7Zm0,19.088a8.852,8.852,0,0,0,8.908-8.908,9.017,9.017,0,0,0-8.908-8.908,8.908,8.908,0,1,0,0,17.815Z" transform="translate(110.569 -12.445)"/><path class="a" d="M94.78,12.7A10.18,10.18,0,1,1,84.6,22.88,10.21,10.21,0,0,1,94.78,12.7Zm0,19.088a8.852,8.852,0,0,0,8.908-8.908,9.017,9.017,0,0,0-8.908-8.908,8.852,8.852,0,0,0-8.908,8.908A9.017,9.017,0,0,0,94.78,31.788Z" transform="translate(130.963 -12.445)"/><path class="a" d="M98.3,13.364a.813.813,0,0,1,.764-.764h7.89a10.18,10.18,0,0,1,0,20.36h-7.89A.813.813,0,0,1,98.3,32.2Zm8.653.764H99.572V32.2h7.381a9.017,9.017,0,0,0,8.908-8.908A9.242,9.242,0,0,0,106.953,14.127Z" transform="translate(152.13 -12.6)"/></g><g transform="translate(386.742 31.813)"><path class="a" d="M151.9,13.364a.764.764,0,0,1,1.527,0V32.706a.764.764,0,0,1-1.527,0Z" transform="translate(-151.9 -12.345)"/><path class="a" d="M158.9,13.518a.813.813,0,0,1,.764-.764c.255,0,.255,0,.509.255l18.07,18.07V13.264a.813.813,0,0,1,.764-.764.675.675,0,0,1,.764.764V32.606a.813.813,0,0,1-.764.764c-.255,0-.509,0-.509-.255l-18.07-18.07V32.86a.764.764,0,0,1-1.527,0Z" transform="translate(-141.085 -12.5)"/><path class="a" d="M181.217,14.127h-8.908c-.255,0-.509-.255-.509-.764,0-.255.255-.764.509-.764h19.342a.764.764,0,1,1,0,1.527h-9.162V32.706a.764.764,0,0,1-1.527,0V14.127Z" transform="translate(-121.154 -12.345)"/><path class="a" d="M184.8,13.364a.813.813,0,0,1,.764-.764H201.6c.255,0,.509.255.509.764,0,.255-.255.764-.509.764h-15.27v8.4h12.216a.764.764,0,1,1,0,1.527H186.327v8.4H201.6c.255,0,.509.255.509.764,0,.255-.255.764-.509.764H185.564a.813.813,0,0,1-.764-.764Z" transform="translate(-101.069 -12.345)"/><path class="a" d="M197.5,13.364a.813.813,0,0,1,.764-.764h9.671a6.25,6.25,0,0,1,6.108,6.363,6.42,6.42,0,0,1-6.108,6.363h0l6.872,6.872c.255.255.255.255.255.509a.813.813,0,0,1-.764.764c-.255,0-.509,0-.509-.255l-7.635-7.635h-7.381V32.96c0,.254-.255.764-.509.764a.813.813,0,0,1-.764-.764Zm1.273.764v9.926h9.162a4.893,4.893,0,0,0,4.836-5.09,5.1,5.1,0,0,0-5.09-5.09h-8.908Z" transform="translate(-81.447 -12.345)"/><path class="a" d="M210.3,13.364a.764.764,0,1,1,1.527,0V32.706a.764.764,0,0,1-1.527,0Z" transform="translate(-61.671 -12.345)"/><path class="a" d="M226.48,12.7A10.18,10.18,0,1,1,216.3,22.88,10.21,10.21,0,0,1,226.48,12.7Zm0,19.342a8.908,8.908,0,1,0-8.908-8.908A9.017,9.017,0,0,0,226.48,32.042Z" transform="translate(-52.401 -12.191)"/><path class="a" d="M229.955,13.364a.813.813,0,0,1,.764-.764h9.671a6.25,6.25,0,0,1,6.108,6.363,6.42,6.42,0,0,1-6.108,6.363h-.255l6.872,6.872c.255.255.255.255.255.509a.813.813,0,0,1-.764.764c-.255,0-.255,0-.509-.255l-7.635-7.635h-7.126V32.96a.763.763,0,1,1-1.527,0v-19.6Zm1.272.764v9.926h9.162a4.893,4.893,0,0,0,4.835-5.09,5.1,5.1,0,0,0-5.09-5.09h-8.908Z" transform="translate(-31.698 -12.345)"/><path class="a" d="M250.653,31.733c4.072,0,7.126-1.018,7.126-4.072s-3.309-4.072-7.126-4.072c-4.836,0-8.4-1.782-8.4-5.345,0-3.309,3.563-5.345,8.4-5.345a19.431,19.431,0,0,1,6.872,1.273c.255,0,.509.509.509.764a.488.488,0,0,1-.763.255,16.1,16.1,0,0,0-6.617-1.273c-4.072,0-7.126,1.018-7.126,4.072s3.309,4.072,7.126,4.072c4.836,0,8.4,1.782,8.4,5.345,0,3.309-3.563,5.345-8.4,5.345h-1.018a22.08,22.08,0,0,1-7.126-1.273c-.255-.255-.509-.509-.509-.764,0-.509.509-.509.764-.509a18.023,18.023,0,0,0,6.617,1.273h1.273Z" transform="translate(-12.694 -11.882)"/></g><path class="a" d="M142.015,2.036a2.036,2.036,0,0,0-4.072,0V37.921h4.072Zm-4.072,81.95a2.036,2.036,0,0,0,4.072,0V47.592h-4.072Zm18.579-72.024A2.007,2.007,0,0,0,154.485,14V40.72H125.472V14a2.036,2.036,0,0,0-4.072,0V71.515a2.036,2.036,0,0,0,4.072,0V44.792h29.013V71.515a2.036,2.036,0,0,0,4.072,0V14A1.873,1.873,0,0,0,156.521,11.962Z" transform="translate(187.719)"/></g></svg>