<svg xmlns="http://www.w3.org/2000/svg" viewBox="0 0 57.656 132.535"><defs><style>.a{fill:#fff;}</style></defs><g transform="translate(-72.7)"><path class="a" d="M104.648,3.245a3.245,3.245,0,0,0-6.489,0v55.41h6.489V3.245ZM98.159,129.29a3.245,3.245,0,0,0,6.489,0V73.131H98.159V129.29Zm28.7-111.07a3.3,3.3,0,0,0-3.245,3.245V62.648H79.189V21.465a3.245,3.245,0,0,0-6.489,0v88.856a3.245,3.245,0,1,0,6.489,0V69.138h44.678v41.183a3.245,3.245,0,0,0,6.489,0V21.465A3.727,3.727,0,0,0,126.862,18.22Z" transform="translate(0)"/></g></svg>